<svg xmlns="http://www.w3.org/2000/svg" width="488.022" height="184.889" viewBox="0 0 488.022 184.889">
  <g id="Grupo_17" data-name="Grupo 17" transform="translate(-307.716 -211.267)">
    <g id="Grupo_15" data-name="Grupo 15">
      <g id="Grupo_12" data-name="Grupo 12">
        <g id="Grupo_9" data-name="Grupo 9">
          <path id="Trazado_10" data-name="Trazado 10" d="M399.255,291.582a1.077,1.077,0,0,0-1.864-1.034c-5.9,7.673-14.765,17.435-21.615,17.306-7.979-.151-11.964-6.375-13.954-12.489a1.083,1.083,0,0,0-2.11.393c-3.461,54.743,41.895,62.452,41.895,62.452C386.942,333.567,393.773,306.013,399.255,291.582Z" fill="#fff"/>
          <circle id="Elipse_4" data-name="Elipse 4" cx="7.996" cy="7.996" r="7.996" transform="translate(366.968 289.801) rotate(-8.985)" fill="#fff"/>
        </g>
        <g id="Grupo_10" data-name="Grupo 10">
          <path id="Trazado_11" data-name="Trazado 11" d="M440.605,271.113c-1.093,6.4-4.162,13.194-12.107,14.511-6.821,1.13-17.1-7.321-24.112-14.12a1.087,1.087,0,0,0-1.708,1.308c7.142,12.816,17.177,37.078,9.1,62.2a1.677,1.677,0,0,0,2.584,1.876c9.65-6.979,31.944-27.445,28.409-65.689A1.092,1.092,0,0,0,440.605,271.113Z" fill="#fff"/>
          <circle id="Elipse_5" data-name="Elipse 5" cx="8.069" cy="8.069" r="8.069" transform="translate(415.702 270.575) rotate(-26.012)" fill="#fff"/>
        </g>
        <g id="Grupo_11" data-name="Grupo 11">
          <path id="Trazado_12" data-name="Trazado 12" d="M404.909,263.949a2.551,2.551,0,1,0-3.6-.258A2.55,2.55,0,0,0,404.909,263.949Z" fill="#fff"/>
          <path id="Trazado_13" data-name="Trazado 13" d="M383.848,274.5a1.681,1.681,0,1,0-2.371-.17A1.681,1.681,0,0,0,383.848,274.5Z" fill="#fff"/>
          <circle id="Elipse_6" data-name="Elipse 6" cx="4.153" cy="4.153" r="4.153" transform="translate(384.789 261.103) rotate(-43.334)" fill="#fff"/>
        </g>
      </g>
      <g id="Grupo_13" data-name="Grupo 13">
        <path id="Trazado_14" data-name="Trazado 14" d="M440.016,381.9H785.3s5.365-4.2,10.438-8.159L449.7,373.5C446.657,376.31,445.874,376.891,440.016,381.9Z" fill="#fff"/>
        <path id="Trazado_15" data-name="Trazado 15" d="M439.9,381.9l9.7-8.4h1.465l-9,8.4Z" fill="#fff"/>
      </g>
      <g id="Grupo_14" data-name="Grupo 14">
        <path id="Trazado_16" data-name="Trazado 16" d="M423.442,396.156H768.727s5.364-4.2,10.437-8.158l-346.042-.243C430.083,390.561,429.3,391.142,423.442,396.156Z" fill="#fff"/>
        <path id="Trazado_17" data-name="Trazado 17" d="M423.325,396.156l9.783-8.4h1.387l-9,8.4Z" fill="#fff"/>
      </g>
      <path id="Trazado_18" data-name="Trazado 18" d="M393.636,211.7l0,0a92.336,92.336,0,0,0,6.61,184.449h18.046l24.136-22.608c-6.913,0-28.054.094-36.32.094-38.552,0-69.8-30.286-69.8-67.646,0-33.57,25.239-61.414,58.329-66.72a88.076,88.076,0,0,1,19.261-.5s15.392.845,31.2,12.192l20.366-19.048C450.441,219.466,427.511,208.974,393.636,211.7Z" fill="#fff"/>
    </g>
    <g id="Grupo_16" data-name="Grupo 16">
      <path id="Trazado_19" data-name="Trazado 19" d="M477.3,249a5.37,5.37,0,0,1,4.091,1.588,6.923,6.923,0,0,1,1.507,4.909v15.27a6.923,6.923,0,0,1-1.507,4.909,5.37,5.37,0,0,1-4.091,1.588h-5.813V249Zm-2.512,25.051h2.261q2.583,0,2.583-3.068v-15.7q0-3.069-2.583-3.069h-2.261Z" fill="#fff"/>
      <path id="Trazado_20" data-name="Trazado 20" d="M491.576,267.374q-.753.65-1.776,1.389t-2.314,1.57V272.1a2.262,2.262,0,0,0,.646,1.751,2.337,2.337,0,0,0,1.65.6,2.391,2.391,0,0,0,1.687-.6,2.266,2.266,0,0,0,.646-1.751v-1.408l2.906-.757v2.273a5.7,5.7,0,0,1-.413,2.239,4.989,4.989,0,0,1-1.148,1.678,4.913,4.913,0,0,1-1.7,1.065,5.929,5.929,0,0,1-2.081.361,5.783,5.783,0,0,1-2.064-.361,4.765,4.765,0,0,1-1.668-1.065,5.11,5.11,0,0,1-1.131-1.678,5.7,5.7,0,0,1-.412-2.239V260.262a5.736,5.736,0,0,1,.412-2.22,5.054,5.054,0,0,1,1.131-1.7,4.718,4.718,0,0,1,1.686-1.065,5.93,5.93,0,0,1,2.081-.362,6.775,6.775,0,0,1,1.938.289,4.408,4.408,0,0,1,1.723.975,5.208,5.208,0,0,1,1.237,1.787,6.874,6.874,0,0,1,.485,2.761,7.343,7.343,0,0,1-.843,3.592A10.956,10.956,0,0,1,491.576,267.374Zm-4.09-.145a16.8,16.8,0,0,0,2.475-1.877,6.89,6.89,0,0,0,1.58-2.058,5.558,5.558,0,0,0,.466-2.346,3.264,3.264,0,0,0-.7-2.4,2.294,2.294,0,0,0-1.632-.667,2.015,2.015,0,0,0-1.615.667,2.763,2.763,0,0,0-.574,1.86Z" fill="#fff"/>
      <path id="Trazado_21" data-name="Trazado 21" d="M501.659,254.919a6.694,6.694,0,0,1,2.368.38,4.542,4.542,0,0,1,1.651,1.029,4,4,0,0,1,.951,1.534,5.782,5.782,0,0,1,.3,1.895V261.2h-2.907V260.19q0-2.238-2.4-2.238a2.569,2.569,0,0,0-1.849.577,2.075,2.075,0,0,0-.592,1.553,3.125,3.125,0,0,0,.252,1.191,5.209,5.209,0,0,0,1.076,1.48q.5.542,1.166,1.155t1.364,1.245q.7.633,1.345,1.282a16.336,16.336,0,0,1,1.113,1.227,6.527,6.527,0,0,1,1.22,2.238,7.927,7.927,0,0,1,.323,2.2,5.755,5.755,0,0,1-1.328,3.935,5.3,5.3,0,0,1-4.2,1.516,5.878,5.878,0,0,1-4.109-1.354,4.837,4.837,0,0,1-1.489-3.772v-2.49l2.907.757v1.48a2.206,2.206,0,0,0,.663,1.679,2.849,2.849,0,0,0,2.028.632,2.227,2.227,0,0,0,2.547-2.491,3.244,3.244,0,0,0-.269-1.354,6.32,6.32,0,0,0-.986-1.426q-.612-.686-1.292-1.335t-1.346-1.264q-.665-.612-1.274-1.191a14.873,14.873,0,0,1-1.076-1.119,7.22,7.22,0,0,1-1.346-2.256,6.612,6.612,0,0,1-.376-2.148,4.59,4.59,0,0,1,1.506-3.7A6.054,6.054,0,0,1,501.659,254.919Z" fill="#fff"/>
      <path id="Trazado_22" data-name="Trazado 22" d="M508.512,257.375a5.3,5.3,0,0,1,2.153-1.806,6.754,6.754,0,0,1,2.942-.65,4.627,4.627,0,0,1,3.912,1.679,6.873,6.873,0,0,1,1.292,4.314v16.352H516.8l-.574-1.227a7,7,0,0,1-1.848,1.1,5.734,5.734,0,0,1-2.171.415,5.058,5.058,0,0,1-1.74-.307,3.887,3.887,0,0,1-1.489-.975,4.674,4.674,0,0,1-1.023-1.75,8.2,8.2,0,0,1-.377-2.671,9.269,9.269,0,0,1,.252-2.239,6.706,6.706,0,0,1,.807-1.913,9.843,9.843,0,0,1,1.417-1.768,19.87,19.87,0,0,1,2.045-1.769q.789-.578,1.723-1.21t1.973-1.281v-.686a3.646,3.646,0,0,0-.646-2.238,2.3,2.3,0,0,0-1.973-.866,3.221,3.221,0,0,0-1.687.451,3.466,3.466,0,0,0-1.219,1.245Zm4.629,17.146a3.07,3.07,0,0,0,1.4-.325,4.888,4.888,0,0,0,1.255-.939v-8.483q-.645.4-1.148.74c-.336.229-.658.464-.969.7a8.1,8.1,0,0,0-2.3,2.563,5.764,5.764,0,0,0-.611,2.6,3.61,3.61,0,0,0,.646,2.419A2.2,2.2,0,0,0,513.141,274.521Z" fill="#fff"/>
      <path id="Trazado_23" data-name="Trazado 23" d="M528.857,258.71a3.83,3.83,0,0,0-2.009-.614,3.628,3.628,0,0,0-3.05,1.877v17.291H520.6V255.208h2.189l.61,1.841a4.252,4.252,0,0,1,3.7-2.13,4.62,4.62,0,0,1,1.4.217,3.5,3.5,0,0,1,1.255.722Z" fill="#fff"/>
      <path id="Trazado_24" data-name="Trazado 24" d="M538.617,258.71a3.831,3.831,0,0,0-2.01-.614,3.628,3.628,0,0,0-3.049,1.877v17.291h-3.194V255.208h2.189l.61,1.841a4.252,4.252,0,0,1,3.7-2.13,4.609,4.609,0,0,1,1.4.217,3.5,3.5,0,0,1,1.256.722Z" fill="#fff"/>
      <path id="Trazado_25" data-name="Trazado 25" d="M550.243,272.21a5.494,5.494,0,0,1-.431,2.239,5.216,5.216,0,0,1-1.166,1.678,4.866,4.866,0,0,1-1.74,1.065,6.443,6.443,0,0,1-4.253,0,4.879,4.879,0,0,1-1.722-1.065,5.2,5.2,0,0,1-1.166-1.678,5.494,5.494,0,0,1-.431-2.239V260.262a5.526,5.526,0,0,1,.431-2.22,5.139,5.139,0,0,1,1.166-1.7,4.864,4.864,0,0,1,1.722-1.065,6.427,6.427,0,0,1,4.253,0,4.852,4.852,0,0,1,1.74,1.065,5.155,5.155,0,0,1,1.166,1.7,5.526,5.526,0,0,1,.431,2.22Zm-7.823-.18a2.23,2.23,0,0,0,.664,1.751,2.454,2.454,0,0,0,1.705.6,2.39,2.39,0,0,0,1.686-.6,2.264,2.264,0,0,0,.646-1.751V260.442a2.263,2.263,0,0,0-.646-1.75,2.391,2.391,0,0,0-1.686-.6,2.455,2.455,0,0,0-1.705.6,2.229,2.229,0,0,0-.664,1.75Z" fill="#fff"/>
      <path id="Trazado_26" data-name="Trazado 26" d="M555.122,247.845v29.419h-3.194V248.639Z" fill="#fff"/>
      <path id="Trazado_27" data-name="Trazado 27" d="M560.182,247.845v29.419h-3.194V248.639Z" fill="#fff"/>
      <path id="Trazado_28" data-name="Trazado 28" d="M572.776,272.21a5.494,5.494,0,0,1-.43,2.239,5.231,5.231,0,0,1-1.166,1.678,4.861,4.861,0,0,1-1.741,1.065,6.44,6.44,0,0,1-4.252,0,4.879,4.879,0,0,1-1.722-1.065,5.2,5.2,0,0,1-1.166-1.678,5.494,5.494,0,0,1-.431-2.239V260.262a5.526,5.526,0,0,1,.431-2.22,5.139,5.139,0,0,1,1.166-1.7,4.864,4.864,0,0,1,1.722-1.065,6.424,6.424,0,0,1,4.252,0,4.847,4.847,0,0,1,1.741,1.065,5.17,5.17,0,0,1,1.166,1.7,5.526,5.526,0,0,1,.43,2.22Zm-7.822-.18a2.23,2.23,0,0,0,.664,1.751,2.453,2.453,0,0,0,1.7.6,2.391,2.391,0,0,0,1.687-.6,2.267,2.267,0,0,0,.646-1.751V260.442a2.266,2.266,0,0,0-.646-1.75,2.392,2.392,0,0,0-1.687-.6,2.454,2.454,0,0,0-1.7.6,2.229,2.229,0,0,0-.664,1.75Z" fill="#fff"/>
      <path id="Trazado_29" data-name="Trazado 29" d="M591.075,272.1a6,6,0,0,1-.449,2.383,5.195,5.195,0,0,1-3.085,2.906,6.624,6.624,0,0,1-2.243.379,6.717,6.717,0,0,1-2.278-.379,5.078,5.078,0,0,1-1.831-1.12,5.37,5.37,0,0,1-1.219-1.786,5.982,5.982,0,0,1-.449-2.383v-17.94a5.985,5.985,0,0,1,.449-2.383,5.2,5.2,0,0,1,1.219-1.769,5.447,5.447,0,0,1,1.831-1.119,6.442,6.442,0,0,1,2.278-.4,6.353,6.353,0,0,1,2.243.4,5.668,5.668,0,0,1,1.848,1.119,5.079,5.079,0,0,1,1.237,1.769,6,6,0,0,1,.449,2.383Zm-8.289-.036a2.379,2.379,0,0,0,.7,1.859,2.913,2.913,0,0,0,3.624,0,2.375,2.375,0,0,0,.7-1.859V254.2a2.375,2.375,0,0,0-.7-1.859,2.914,2.914,0,0,0-3.624,0,2.379,2.379,0,0,0-.7,1.859Z" fill="#fff"/>
      <path id="Trazado_30" data-name="Trazado 30" d="M601.014,258.71a3.83,3.83,0,0,0-2.009-.614,3.629,3.629,0,0,0-3.05,1.877v17.291h-3.194V255.208h2.189l.61,1.841a4.252,4.252,0,0,1,3.7-2.13,4.615,4.615,0,0,1,1.4.217,3.511,3.511,0,0,1,1.256.722Z" fill="#fff"/>
      <path id="Trazado_31" data-name="Trazado 31" d="M602.377,260.262a5.526,5.526,0,0,1,.431-2.22,5.143,5.143,0,0,1,1.167-1.7,4.856,4.856,0,0,1,1.722-1.065,6.178,6.178,0,0,1,2.135-.362,5.509,5.509,0,0,1,2.906.759l3.983-.217-1.794,2.78a6.015,6.015,0,0,1,.359,2.021v5.848a5.472,5.472,0,0,1-.431,2.238,5.2,5.2,0,0,1-1.166,1.678,4.844,4.844,0,0,1-1.74,1.065,6.184,6.184,0,0,1-2.117.362,6.708,6.708,0,0,1-1.256-.109,2.193,2.193,0,0,0-.861,1.733,1.457,1.457,0,0,0,.431,1.1,1.965,1.965,0,0,0,1.4.415h6.279l-1.256,2.743h-6.136a2.377,2.377,0,0,0-1.686.488,1.613,1.613,0,0,0-.5,1.209,1.718,1.718,0,0,0,.448,1.209,1.739,1.739,0,0,0,1.346.487h5.023l-1.256,2.708h-4.377a5.037,5.037,0,0,1-1.938-.343,3.919,3.919,0,0,1-1.382-.939,4.05,4.05,0,0,1-.843-1.371,4.61,4.61,0,0,1-.287-1.607,4.464,4.464,0,0,1,.646-2.364,3.961,3.961,0,0,1,2.009-1.606,3.084,3.084,0,0,1-.5-1.8,2.9,2.9,0,0,1,.431-1.607,4.257,4.257,0,0,1,1.148-1.173,4.656,4.656,0,0,1-1.705-1.805,5.588,5.588,0,0,1-.628-2.707Zm3.015,5.812a2.3,2.3,0,0,0,.682,1.8,2.8,2.8,0,0,0,3.5,0,2.271,2.271,0,0,0,.7-1.8V260.3a2.263,2.263,0,0,0-.7-1.823,2.868,2.868,0,0,0-3.5,0,2.294,2.294,0,0,0-.682,1.823Z" fill="#fff"/>
      <path id="Trazado_32" data-name="Trazado 32" d="M615.4,257.375a5.3,5.3,0,0,1,2.153-1.806,6.748,6.748,0,0,1,2.942-.65,4.626,4.626,0,0,1,3.911,1.679,6.867,6.867,0,0,1,1.292,4.314v16.352h-2.01l-.574-1.227a6.994,6.994,0,0,1-1.847,1.1,5.734,5.734,0,0,1-2.171.415,5.064,5.064,0,0,1-1.741-.307,3.9,3.9,0,0,1-1.489-.975,4.672,4.672,0,0,1-1.022-1.75,8.176,8.176,0,0,1-.377-2.671,9.269,9.269,0,0,1,.251-2.239,6.705,6.705,0,0,1,.807-1.913,9.9,9.9,0,0,1,1.418-1.768,19.871,19.871,0,0,1,2.045-1.769q.789-.578,1.722-1.21t1.974-1.281v-.686a3.646,3.646,0,0,0-.646-2.238,2.3,2.3,0,0,0-1.974-.866,3.215,3.215,0,0,0-1.686.451,3.468,3.468,0,0,0-1.22,1.245Zm4.629,17.146a3.066,3.066,0,0,0,1.4-.325,4.891,4.891,0,0,0,1.256-.939v-8.483q-.647.4-1.148.74t-.969.7a8.109,8.109,0,0,0-2.3,2.563,5.763,5.763,0,0,0-.61,2.6,3.6,3.6,0,0,0,.646,2.419A2.2,2.2,0,0,0,620.032,274.521Z" fill="#fff"/>
      <path id="Trazado_33" data-name="Trazado 33" d="M629.684,255.208l.5,1.264a5.937,5.937,0,0,1,3.947-1.553,4.888,4.888,0,0,1,1.776.326,3.94,3.94,0,0,1,1.471.992,4.714,4.714,0,0,1,.987,1.679,7.01,7.01,0,0,1,.359,2.346v17h-3.194V260.948a3.551,3.551,0,0,0-.538-2.112,2.028,2.028,0,0,0-1.758-.74,3.69,3.69,0,0,0-2.548,1.155v18.013h-3.193V255.208Z" fill="#fff"/>
      <path id="Trazado_34" data-name="Trazado 34" d="M642.062,248.169a1.764,1.764,0,0,1,1.436.56,2.1,2.1,0,0,1,.466,1.39,2.241,2.241,0,0,1-.466,1.425,1.712,1.712,0,0,1-1.436.6,1.617,1.617,0,0,1-1.381-.6,2.3,2.3,0,0,1-.448-1.425,2.151,2.151,0,0,1,.448-1.39A1.663,1.663,0,0,1,642.062,248.169Zm1.651,7.039v22.056H640.52V255.208Z" fill="#fff"/>
      <path id="Trazado_35" data-name="Trazado 35" d="M655.447,255.208v2.238l-7.176,17.111h7.176v2.707H644.9v-2.635l7.177-16.713h-7.033v-2.708Z" fill="#fff"/>
      <path id="Trazado_36" data-name="Trazado 36" d="M656.882,257.375a5.3,5.3,0,0,1,2.153-1.806,6.748,6.748,0,0,1,2.942-.65,4.626,4.626,0,0,1,3.911,1.679,6.867,6.867,0,0,1,1.292,4.314v16.352h-2.01l-.574-1.227a6.994,6.994,0,0,1-1.847,1.1,5.734,5.734,0,0,1-2.171.415,5.064,5.064,0,0,1-1.741-.307,3.9,3.9,0,0,1-1.489-.975,4.672,4.672,0,0,1-1.022-1.75,8.176,8.176,0,0,1-.377-2.671,9.269,9.269,0,0,1,.251-2.239,6.705,6.705,0,0,1,.807-1.913,9.9,9.9,0,0,1,1.418-1.768,19.876,19.876,0,0,1,2.045-1.769q.789-.578,1.722-1.21t1.974-1.281v-.686a3.646,3.646,0,0,0-.646-2.238,2.3,2.3,0,0,0-1.974-.866,3.215,3.215,0,0,0-1.686.451,3.468,3.468,0,0,0-1.22,1.245Zm4.629,17.146a3.066,3.066,0,0,0,1.4-.325,4.891,4.891,0,0,0,1.256-.939v-8.483q-.647.4-1.148.74t-.969.7a8.109,8.109,0,0,0-2.3,2.563,5.762,5.762,0,0,0-.61,2.6,3.6,3.6,0,0,0,.646,2.419A2.2,2.2,0,0,0,661.511,274.521Z" fill="#fff"/>
      <path id="Trazado_37" data-name="Trazado 37" d="M671.88,272.03a2.267,2.267,0,0,0,.646,1.751,2.341,2.341,0,0,0,1.651.6,2.388,2.388,0,0,0,1.686-.6,2.264,2.264,0,0,0,.646-1.751v-1.336l2.907-.757v2.273a5.7,5.7,0,0,1-.413,2.239,4.977,4.977,0,0,1-1.149,1.678,4.913,4.913,0,0,1-1.7,1.065,5.929,5.929,0,0,1-2.081.361,5.778,5.778,0,0,1-2.063-.361,4.77,4.77,0,0,1-1.669-1.065,5.108,5.108,0,0,1-1.13-1.678,5.7,5.7,0,0,1-.413-2.239V260.262a5.737,5.737,0,0,1,.413-2.22,5.053,5.053,0,0,1,1.13-1.7,4.756,4.756,0,0,1,1.669-1.065,5.778,5.778,0,0,1,2.063-.362,5.93,5.93,0,0,1,2.081.362A4.9,4.9,0,0,1,679,258.042a5.736,5.736,0,0,1,.413,2.22v.939h-2.907v-.759a2.263,2.263,0,0,0-.646-1.75,2.389,2.389,0,0,0-1.686-.6,2.342,2.342,0,0,0-1.651.6,2.266,2.266,0,0,0-.646,1.75Z" fill="#fff"/>
      <path id="Trazado_38" data-name="Trazado 38" d="M682.357,248.169a1.765,1.765,0,0,1,1.436.56,2.1,2.1,0,0,1,.466,1.39,2.241,2.241,0,0,1-.466,1.425,1.712,1.712,0,0,1-1.436.6,1.617,1.617,0,0,1-1.381-.6,2.3,2.3,0,0,1-.448-1.425,2.151,2.151,0,0,1,.448-1.39A1.663,1.663,0,0,1,682.357,248.169Zm1.651,7.039v22.056h-3.194V255.208Z" fill="#fff"/>
      <path id="Trazado_39" data-name="Trazado 39" d="M696.6,272.21a5.494,5.494,0,0,1-.431,2.239,5.216,5.216,0,0,1-1.166,1.678,4.849,4.849,0,0,1-1.74,1.065,6.44,6.44,0,0,1-4.252,0,4.87,4.87,0,0,1-1.722-1.065,5.22,5.22,0,0,1-1.167-1.678,5.494,5.494,0,0,1-.43-2.239V260.262a5.526,5.526,0,0,1,.43-2.22,5.158,5.158,0,0,1,1.167-1.7,4.856,4.856,0,0,1,1.722-1.065,6.424,6.424,0,0,1,4.252,0,4.835,4.835,0,0,1,1.74,1.065,5.155,5.155,0,0,1,1.166,1.7,5.526,5.526,0,0,1,.431,2.22Zm-7.822-.18a2.23,2.23,0,0,0,.663,1.751,2.457,2.457,0,0,0,1.705.6,2.389,2.389,0,0,0,1.686-.6,2.264,2.264,0,0,0,.646-1.751V260.442a2.263,2.263,0,0,0-.646-1.75,2.389,2.389,0,0,0-1.686-.6,2.458,2.458,0,0,0-1.705.6,2.229,2.229,0,0,0-.663,1.75Z" fill="#fff"/>
      <path id="Trazado_40" data-name="Trazado 40" d="M700.478,255.208l.5,1.264a5.937,5.937,0,0,1,3.947-1.553,4.9,4.9,0,0,1,1.777.326,3.944,3.944,0,0,1,1.47.992,4.744,4.744,0,0,1,.987,1.679,7.01,7.01,0,0,1,.359,2.346v17h-3.193V260.948a3.558,3.558,0,0,0-.538-2.112,2.031,2.031,0,0,0-1.759-.74,3.69,3.69,0,0,0-2.548,1.155v18.013h-3.193V255.208Z" fill="#fff"/>
      <path id="Trazado_41" data-name="Trazado 41" d="M711.565,257.375a5.3,5.3,0,0,1,2.153-1.806,6.755,6.755,0,0,1,2.943-.65,4.627,4.627,0,0,1,3.911,1.679,6.873,6.873,0,0,1,1.292,4.314v16.352h-2.01l-.574-1.227a7,7,0,0,1-1.848,1.1,5.73,5.73,0,0,1-2.171.415,5.062,5.062,0,0,1-1.74-.307,3.887,3.887,0,0,1-1.489-.975,4.675,4.675,0,0,1-1.023-1.75,8.2,8.2,0,0,1-.377-2.671,9.322,9.322,0,0,1,.251-2.239,6.709,6.709,0,0,1,.808-1.913,9.844,9.844,0,0,1,1.417-1.768,19.785,19.785,0,0,1,2.046-1.769q.788-.578,1.721-1.21t1.974-1.281v-.686a3.652,3.652,0,0,0-.645-2.238,2.3,2.3,0,0,0-1.974-.866,3.221,3.221,0,0,0-1.687.451,3.474,3.474,0,0,0-1.219,1.245Zm4.629,17.146a3.06,3.06,0,0,0,1.4-.325,4.858,4.858,0,0,0,1.256-.939v-8.483q-.646.4-1.147.74t-.97.7a8.1,8.1,0,0,0-2.3,2.563,5.763,5.763,0,0,0-.61,2.6,3.61,3.61,0,0,0,.646,2.419A2.2,2.2,0,0,0,716.194,274.521Z" fill="#fff"/>
      <path id="Trazado_42" data-name="Trazado 42" d="M726.85,247.845v29.419h-3.193V248.639Z" fill="#fff"/>
      <path id="Trazado_43" data-name="Trazado 43" d="M482.5,295.259v28.228H479.3v-7.364a5.368,5.368,0,0,1-3.338,1.119,4.746,4.746,0,0,1-1.758-.325,3.964,3.964,0,0,1-1.453-.992,4.737,4.737,0,0,1-.987-1.661,6.969,6.969,0,0,1-.359-2.364V295.259H474.6v15.955q0,2.852,2.26,2.851a3.468,3.468,0,0,0,2.441-1.118V295.259Z" fill="#fff"/>
      <path id="Trazado_44" data-name="Trazado 44" d="M499.29,289.05v3.213H492.9v9.818h4.7v3.213h-4.7v12.02h-3.3V289.05Z" fill="#fff"/>
      <path id="Trazado_45" data-name="Trazado 45" d="M509.158,312.261a5.488,5.488,0,0,1-.43,2.238,5.247,5.247,0,0,1-1.166,1.678,4.862,4.862,0,0,1-1.741,1.065,6.441,6.441,0,0,1-4.252,0,4.879,4.879,0,0,1-1.722-1.065,5.2,5.2,0,0,1-1.166-1.678,5.489,5.489,0,0,1-.431-2.238V300.313a5.531,5.531,0,0,1,.431-2.221,5.15,5.15,0,0,1,1.166-1.7,4.894,4.894,0,0,1,1.722-1.065,6.441,6.441,0,0,1,4.252,0,4.876,4.876,0,0,1,1.741,1.065,5.2,5.2,0,0,1,1.166,1.7,5.53,5.53,0,0,1,.43,2.221Zm-7.822-.181a2.229,2.229,0,0,0,.664,1.751,2.454,2.454,0,0,0,1.7.6,2.393,2.393,0,0,0,1.687-.6,2.266,2.266,0,0,0,.646-1.751V300.493a2.267,2.267,0,0,0-.646-1.751,2.393,2.393,0,0,0-1.687-.6,2.454,2.454,0,0,0-1.7.6,2.23,2.23,0,0,0-.664,1.751Z" fill="#fff"/>
      <path id="Trazado_46" data-name="Trazado 46" d="M519.1,298.76a3.831,3.831,0,0,0-2.01-.614,3.628,3.628,0,0,0-3.049,1.877v17.291h-3.194V295.259h2.189l.61,1.841a4.25,4.25,0,0,1,3.7-2.13,4.577,4.577,0,0,1,1.4.217,3.488,3.488,0,0,1,1.256.722Z" fill="#fff"/>
      <path id="Trazado_47" data-name="Trazado 47" d="M522.792,295.259l.5,1.227a5.5,5.5,0,0,1,3.767-1.516,4.353,4.353,0,0,1,2.046.487,4.092,4.092,0,0,1,1.543,1.426,5.538,5.538,0,0,1,1.919-1.426,5.459,5.459,0,0,1,2.243-.487,4.659,4.659,0,0,1,1.723.325,3.819,3.819,0,0,1,1.435.993,4.868,4.868,0,0,1,.968,1.678,7.014,7.014,0,0,1,.359,2.347v17H536.1V301a3.749,3.749,0,0,0-.5-2.111,1.892,1.892,0,0,0-1.687-.741,3.422,3.422,0,0,0-2.44,1.156c.024.168.042.331.054.487s.018.331.018.524v17h-3.194V301a3.74,3.74,0,0,0-.5-2.111,1.89,1.89,0,0,0-1.686-.741,3.284,3.284,0,0,0-2.369,1.083v18.085H520.6V295.259Z" fill="#fff"/>
      <path id="Trazado_48" data-name="Trazado 48" d="M541.344,297.425a5.3,5.3,0,0,1,2.153-1.8,6.748,6.748,0,0,1,2.942-.65,4.625,4.625,0,0,1,3.911,1.678,6.877,6.877,0,0,1,1.292,4.314v16.352h-2.01l-.574-1.227a6.956,6.956,0,0,1-1.848,1.1,5.725,5.725,0,0,1-2.17.415,5.063,5.063,0,0,1-1.741-.307,3.9,3.9,0,0,1-1.489-.974,4.685,4.685,0,0,1-1.022-1.751,8.177,8.177,0,0,1-.377-2.671,9.258,9.258,0,0,1,.251-2.238,6.7,6.7,0,0,1,.807-1.913,9.823,9.823,0,0,1,1.418-1.769,19.863,19.863,0,0,1,2.045-1.769q.789-.578,1.722-1.21t1.974-1.281v-.686a3.646,3.646,0,0,0-.646-2.238,2.3,2.3,0,0,0-1.974-.866,3.224,3.224,0,0,0-1.686.451,3.484,3.484,0,0,0-1.22,1.245Zm4.629,17.146a3.066,3.066,0,0,0,1.4-.325,4.885,4.885,0,0,0,1.256-.938v-8.483q-.646.4-1.149.739t-.968.705a8.1,8.1,0,0,0-2.3,2.563,5.757,5.757,0,0,0-.61,2.6,3.6,3.6,0,0,0,.646,2.418A2.2,2.2,0,0,0,545.973,314.571Z" fill="#fff"/>
      <path id="Trazado_49" data-name="Trazado 49" d="M556.342,312.08a2.262,2.262,0,0,0,.646,1.751,2.337,2.337,0,0,0,1.65.6,2.392,2.392,0,0,0,1.687-.6,2.266,2.266,0,0,0,.646-1.751v-1.335l2.906-.758v2.274a5.7,5.7,0,0,1-.413,2.238,4.988,4.988,0,0,1-1.148,1.678,4.913,4.913,0,0,1-1.7,1.065,5.934,5.934,0,0,1-2.081.361,5.784,5.784,0,0,1-2.064-.361,4.765,4.765,0,0,1-1.668-1.065,5.109,5.109,0,0,1-1.131-1.678,5.7,5.7,0,0,1-.412-2.238V300.313a5.74,5.74,0,0,1,.412-2.221,5.064,5.064,0,0,1,1.131-1.7,4.78,4.78,0,0,1,1.668-1.065,5.784,5.784,0,0,1,2.064-.361,5.934,5.934,0,0,1,2.081.361,4.9,4.9,0,0,1,2.852,2.761,5.741,5.741,0,0,1,.413,2.221v.938h-2.906v-.758a2.267,2.267,0,0,0-.646-1.751,2.392,2.392,0,0,0-1.687-.6,2.337,2.337,0,0,0-1.65.6,2.264,2.264,0,0,0-.646,1.751Z" fill="#fff"/>
      <path id="Trazado_50" data-name="Trazado 50" d="M566.819,288.22a1.762,1.762,0,0,1,1.435.559,2.1,2.1,0,0,1,.467,1.39,2.242,2.242,0,0,1-.467,1.426,1.71,1.71,0,0,1-1.435.6,1.618,1.618,0,0,1-1.382-.6,2.3,2.3,0,0,1-.448-1.426,2.153,2.153,0,0,1,.448-1.39A1.665,1.665,0,0,1,566.819,288.22Zm1.651,7.039v22.055h-3.194V295.259Z" fill="#fff"/>
      <path id="Trazado_51" data-name="Trazado 51" d="M581.064,312.261a5.488,5.488,0,0,1-.43,2.238,5.215,5.215,0,0,1-1.166,1.678,4.867,4.867,0,0,1-1.74,1.065,6.444,6.444,0,0,1-4.253,0,4.879,4.879,0,0,1-1.722-1.065,5.2,5.2,0,0,1-1.166-1.678,5.489,5.489,0,0,1-.431-2.238V300.313a5.531,5.531,0,0,1,.431-2.221,5.152,5.152,0,0,1,1.166-1.7,4.894,4.894,0,0,1,1.722-1.065,6.444,6.444,0,0,1,4.253,0,4.881,4.881,0,0,1,1.74,1.065,5.165,5.165,0,0,1,1.166,1.7,5.53,5.53,0,0,1,.43,2.221ZM579.2,287.823l-3.84,5.7h-2.8l3.157-5.7Zm-5.957,24.257a2.229,2.229,0,0,0,.664,1.751,2.454,2.454,0,0,0,1.7.6,2.391,2.391,0,0,0,1.687-.6,2.262,2.262,0,0,0,.646-1.751V300.493a2.264,2.264,0,0,0-.646-1.751,2.391,2.391,0,0,0-1.687-.6,2.454,2.454,0,0,0-1.7.6,2.23,2.23,0,0,0-.664,1.751Z" fill="#fff"/>
      <path id="Trazado_52" data-name="Trazado 52" d="M584.939,295.259l.5,1.263a5.929,5.929,0,0,1,3.947-1.552,4.887,4.887,0,0,1,1.776.325,3.93,3.93,0,0,1,1.471.993,4.7,4.7,0,0,1,.987,1.678,7.012,7.012,0,0,1,.359,2.347v17h-3.194V301a3.545,3.545,0,0,0-.538-2.111,2.029,2.029,0,0,0-1.758-.741,3.69,3.69,0,0,0-2.548,1.156v18.012H582.75V295.259Z" fill="#fff"/>
      <path id="Trazado_53" data-name="Trazado 53" d="M604.1,312.152a2.388,2.388,0,0,0,.664,1.842,2.463,2.463,0,0,0,1.74.613,2.53,2.53,0,0,0,1.759-.613,2.356,2.356,0,0,0,.681-1.842v-.577l3.05-.794v1.444a5.772,5.772,0,0,1-.448,2.328,5.567,5.567,0,0,1-1.2,1.769,4.972,4.972,0,0,1-1.777,1.119,6.311,6.311,0,0,1-2.206.379,6.059,6.059,0,0,1-2.153-.379,5,5,0,0,1-1.758-1.119,5.318,5.318,0,0,1-1.184-1.769,5.982,5.982,0,0,1-.431-2.328V294.14a5.975,5.975,0,0,1,.431-2.328,5.323,5.323,0,0,1,1.184-1.77,4.952,4.952,0,0,1,1.794-1.119,6.678,6.678,0,0,1,2.3-.379,5.332,5.332,0,0,1,3.983,1.5,5.6,5.6,0,0,1,1.471,4.1v.938h-3.05v-.866a2.464,2.464,0,0,0-.628-1.841,2.385,2.385,0,0,0-1.74-.614,2.566,2.566,0,0,0-1.812.614,2.386,2.386,0,0,0-.664,1.841Z" fill="#fff"/>
      <path id="Trazado_54" data-name="Trazado 54" d="M623.907,312.261a5.489,5.489,0,0,1-.431,2.238,5.215,5.215,0,0,1-1.166,1.678,4.866,4.866,0,0,1-1.74,1.065,6.444,6.444,0,0,1-4.253,0,4.88,4.88,0,0,1-1.722-1.065,5.2,5.2,0,0,1-1.166-1.678,5.489,5.489,0,0,1-.43-2.238V300.313a5.531,5.531,0,0,1,.43-2.221,5.15,5.15,0,0,1,1.166-1.7,4.894,4.894,0,0,1,1.722-1.065,6.444,6.444,0,0,1,4.253,0,4.881,4.881,0,0,1,1.74,1.065,5.165,5.165,0,0,1,1.166,1.7,5.531,5.531,0,0,1,.431,2.221Zm-7.823-.181a2.229,2.229,0,0,0,.664,1.751,2.455,2.455,0,0,0,1.705.6,2.391,2.391,0,0,0,1.686-.6,2.262,2.262,0,0,0,.646-1.751V300.493a2.264,2.264,0,0,0-.646-1.751,2.391,2.391,0,0,0-1.686-.6,2.455,2.455,0,0,0-1.705.6,2.23,2.23,0,0,0-.664,1.751Z" fill="#fff"/>
      <path id="Trazado_55" data-name="Trazado 55" d="M633.846,298.76a3.831,3.831,0,0,0-2.01-.614,3.628,3.628,0,0,0-3.049,1.877v17.291h-3.194V295.259h2.189l.61,1.841a4.25,4.25,0,0,1,3.7-2.13,4.578,4.578,0,0,1,1.4.217,3.488,3.488,0,0,1,1.256.722Z" fill="#fff"/>
      <path id="Trazado_56" data-name="Trazado 56" d="M637.542,295.259l.538,1.371a6.077,6.077,0,0,1,1.848-1.227,5.41,5.41,0,0,1,2.134-.433,4.658,4.658,0,0,1,1.723.325,3.8,3.8,0,0,1,1.435.993,5.077,5.077,0,0,1,.987,1.678,6.706,6.706,0,0,1,.377,2.347v11.948a6.664,6.664,0,0,1-.377,2.364,5.116,5.116,0,0,1-.987,1.661,3.812,3.812,0,0,1-1.435.992,4.659,4.659,0,0,1-1.723.325,5.394,5.394,0,0,1-3.516-1.263v7.147h-3.193V295.259Zm3.624,2.887a3.538,3.538,0,0,0-2.62,1.264v13.753a3.534,3.534,0,0,0,2.62,1.264,1.946,1.946,0,0,0,1.686-.74,3.547,3.547,0,0,0,.538-2.112V301a3.545,3.545,0,0,0-.538-2.111A1.946,1.946,0,0,0,641.166,298.146Z" fill="#fff"/>
      <path id="Trazado_57" data-name="Trazado 57" d="M659,312.261a5.489,5.489,0,0,1-.431,2.238,5.214,5.214,0,0,1-1.166,1.678,4.849,4.849,0,0,1-1.74,1.065,6.441,6.441,0,0,1-4.252,0,4.883,4.883,0,0,1-1.723-1.065,5.232,5.232,0,0,1-1.166-1.678,5.489,5.489,0,0,1-.43-2.238V300.313a5.531,5.531,0,0,1,.43-2.221,5.181,5.181,0,0,1,1.166-1.7,4.9,4.9,0,0,1,1.723-1.065,6.441,6.441,0,0,1,4.252,0,4.863,4.863,0,0,1,1.74,1.065,5.164,5.164,0,0,1,1.166,1.7,5.531,5.531,0,0,1,.431,2.221Zm-7.822-.181a2.228,2.228,0,0,0,.663,1.751,2.458,2.458,0,0,0,1.7.6,2.389,2.389,0,0,0,1.686-.6,2.262,2.262,0,0,0,.646-1.751V300.493a2.264,2.264,0,0,0-.646-1.751,2.389,2.389,0,0,0-1.686-.6,2.458,2.458,0,0,0-1.7.6,2.229,2.229,0,0,0-.663,1.751Z" fill="#fff"/>
      <path id="Trazado_58" data-name="Trazado 58" d="M668.937,298.76a3.825,3.825,0,0,0-2.009-.614,3.63,3.63,0,0,0-3.05,1.877v17.291h-3.193V295.259h2.189l.609,1.841a4.252,4.252,0,0,1,3.7-2.13,4.577,4.577,0,0,1,1.4.217,3.488,3.488,0,0,1,1.256.722Z" fill="#fff"/>
      <path id="Trazado_59" data-name="Trazado 59" d="M669.728,297.425a5.3,5.3,0,0,1,2.152-1.8,6.756,6.756,0,0,1,2.943-.65,4.625,4.625,0,0,1,3.911,1.678,6.877,6.877,0,0,1,1.292,4.314v16.352h-2.01l-.574-1.227a6.956,6.956,0,0,1-1.848,1.1,5.73,5.73,0,0,1-2.171.415,5.062,5.062,0,0,1-1.74-.307,3.9,3.9,0,0,1-1.489-.974,4.686,4.686,0,0,1-1.023-1.751,8.2,8.2,0,0,1-.377-2.671,9.253,9.253,0,0,1,.252-2.238,6.694,6.694,0,0,1,.807-1.913,9.82,9.82,0,0,1,1.418-1.769,19.846,19.846,0,0,1,2.044-1.769q.79-.578,1.723-1.21t1.974-1.281v-.686a3.653,3.653,0,0,0-.646-2.238,2.3,2.3,0,0,0-1.974-.866,3.224,3.224,0,0,0-1.686.451,3.476,3.476,0,0,0-1.22,1.245Zm4.628,17.146a3.07,3.07,0,0,0,1.4-.325,4.9,4.9,0,0,0,1.256-.938v-8.483q-.647.4-1.149.739t-.968.705a8.086,8.086,0,0,0-2.3,2.563,5.756,5.756,0,0,0-.61,2.6,3.6,3.6,0,0,0,.646,2.418A2.195,2.195,0,0,0,674.356,314.571Z" fill="#fff"/>
      <path id="Trazado_60" data-name="Trazado 60" d="M682.967,295.259V291.4l3.086-1.3v5.162h3.66v2.707h-3.66V311.9a2.8,2.8,0,0,0,.646,1.967,2.181,2.181,0,0,0,1.686.7,2.707,2.707,0,0,0,1.615-.577l.861,2.743a4.447,4.447,0,0,1-1.381.65,5.9,5.9,0,0,1-1.6.216,5.064,5.064,0,0,1-2.225-.451,4.159,4.159,0,0,1-1.525-1.227,5.267,5.267,0,0,1-.879-1.823,8.266,8.266,0,0,1-.287-2.2V297.966H680.6v-2.707Z" fill="#fff"/>
      <path id="Trazado_61" data-name="Trazado 61" d="M692.979,288.22a1.762,1.762,0,0,1,1.435.559,2.1,2.1,0,0,1,.466,1.39,2.242,2.242,0,0,1-.466,1.426,1.709,1.709,0,0,1-1.435.6,1.617,1.617,0,0,1-1.382-.6,2.3,2.3,0,0,1-.448-1.426,2.153,2.153,0,0,1,.448-1.39A1.664,1.664,0,0,1,692.979,288.22Zm1.65,7.039v22.055h-3.193V295.259Z" fill="#fff"/>
      <path id="Trazado_62" data-name="Trazado 62" d="M698.612,295.259l2.978,16.388,3.121-16.388h3.051l-4.629,22.055h-3.122l-4.485-22.055Z" fill="#fff"/>
      <path id="Trazado_63" data-name="Trazado 63" d="M707.869,297.425a5.31,5.31,0,0,1,2.153-1.8,6.755,6.755,0,0,1,2.942-.65,4.625,4.625,0,0,1,3.911,1.678,6.871,6.871,0,0,1,1.292,4.314v16.352h-2.009l-.575-1.227a6.967,6.967,0,0,1-1.847,1.1,5.73,5.73,0,0,1-2.171.415,5.054,5.054,0,0,1-1.74-.307,3.9,3.9,0,0,1-1.49-.974,4.7,4.7,0,0,1-1.022-1.751,8.2,8.2,0,0,1-.377-2.671,9.307,9.307,0,0,1,.251-2.238,6.7,6.7,0,0,1,.808-1.913,9.77,9.77,0,0,1,1.417-1.769,19.677,19.677,0,0,1,2.046-1.769q.787-.578,1.721-1.21t1.974-1.281v-.686a3.646,3.646,0,0,0-.646-2.238,2.3,2.3,0,0,0-1.973-.866,3.23,3.23,0,0,0-1.687.451,3.492,3.492,0,0,0-1.22,1.245Zm4.629,17.146a3.065,3.065,0,0,0,1.4-.325,4.852,4.852,0,0,0,1.256-.938v-8.483q-.647.4-1.148.739c-.336.229-.658.464-.969.705a8.093,8.093,0,0,0-2.3,2.563,5.757,5.757,0,0,0-.611,2.6,3.6,3.6,0,0,0,.647,2.418A2.195,2.195,0,0,0,712.5,314.571Z" fill="#fff"/>
      <path id="Trazado_64" data-name="Trazado 64" d="M482.857,352.2a6,6,0,0,1-.449,2.383,5.192,5.192,0,0,1-3.086,2.906,6.614,6.614,0,0,1-2.242.379,6.723,6.723,0,0,1-2.279-.379,5.086,5.086,0,0,1-1.83-1.119,5.387,5.387,0,0,1-1.22-1.787,6,6,0,0,1-.448-2.383v-17.94a6.006,6.006,0,0,1,.448-2.383,5.2,5.2,0,0,1,1.22-1.769,5.444,5.444,0,0,1,1.83-1.119,6.448,6.448,0,0,1,2.279-.4,6.343,6.343,0,0,1,2.242.4,5.647,5.647,0,0,1,1.848,1.119,5.082,5.082,0,0,1,1.238,1.769,6.006,6.006,0,0,1,.449,2.383Zm-8.289-.036a2.375,2.375,0,0,0,.7,1.859,2.914,2.914,0,0,0,3.624,0,2.378,2.378,0,0,0,.7-1.859V334.3a2.378,2.378,0,0,0-.7-1.859,2.914,2.914,0,0,0-3.624,0,2.375,2.375,0,0,0-.7,1.859Z" fill="#fff"/>
      <path id="Trazado_65" data-name="Trazado 65" d="M492.8,338.81a3.83,3.83,0,0,0-2.009-.614,3.628,3.628,0,0,0-3.05,1.877v17.291h-3.194V335.309h2.189l.61,1.84a4.251,4.251,0,0,1,3.7-2.129,4.609,4.609,0,0,1,1.4.216,3.51,3.51,0,0,1,1.256.722Z" fill="#fff"/>
      <path id="Trazado_66" data-name="Trazado 66" d="M494.159,340.362a5.526,5.526,0,0,1,.431-2.22,5.155,5.155,0,0,1,1.166-1.7,4.888,4.888,0,0,1,1.723-1.065,6.176,6.176,0,0,1,2.134-.361,5.512,5.512,0,0,1,2.907.758l3.983-.217-1.794,2.78a6.014,6.014,0,0,1,.358,2.021v5.848a5.488,5.488,0,0,1-.43,2.238,5.2,5.2,0,0,1-1.166,1.678,4.848,4.848,0,0,1-1.741,1.065,6.18,6.18,0,0,1-2.117.362,6.723,6.723,0,0,1-1.256-.109,2.194,2.194,0,0,0-.86,1.733,1.46,1.46,0,0,0,.43,1.1,1.969,1.969,0,0,0,1.4.415h6.279l-1.256,2.744h-6.136a2.375,2.375,0,0,0-1.686.487,1.612,1.612,0,0,0-.5,1.209,1.713,1.713,0,0,0,.449,1.209,1.737,1.737,0,0,0,1.345.488h5.024l-1.256,2.707h-4.378a5.036,5.036,0,0,1-1.937-.343,3.918,3.918,0,0,1-1.382-.939,4.035,4.035,0,0,1-.843-1.371,4.584,4.584,0,0,1-.287-1.607,4.467,4.467,0,0,1,.646-2.364,3.957,3.957,0,0,1,2.009-1.606,3.084,3.084,0,0,1-.5-1.8,2.9,2.9,0,0,1,.431-1.606,4.247,4.247,0,0,1,1.148-1.174,4.656,4.656,0,0,1-1.705-1.8,5.588,5.588,0,0,1-.628-2.707Zm3.014,5.812a2.3,2.3,0,0,0,.682,1.8,2.8,2.8,0,0,0,3.5,0,2.275,2.275,0,0,0,.7-1.8V340.4a2.267,2.267,0,0,0-.7-1.823,2.869,2.869,0,0,0-3.5,0,2.3,2.3,0,0,0-.682,1.823Z" fill="#fff"/>
      <path id="Trazado_67" data-name="Trazado 67" d="M507.185,337.475a5.31,5.31,0,0,1,2.152-1.806,6.755,6.755,0,0,1,2.943-.649,4.625,4.625,0,0,1,3.911,1.678,6.873,6.873,0,0,1,1.292,4.314v16.352h-2.01l-.574-1.227a6.984,6.984,0,0,1-1.848,1.1,5.727,5.727,0,0,1-2.171.415,5.063,5.063,0,0,1-1.74-.307,3.911,3.911,0,0,1-1.489-.974,4.687,4.687,0,0,1-1.023-1.751,8.2,8.2,0,0,1-.377-2.671,9.269,9.269,0,0,1,.252-2.239,6.707,6.707,0,0,1,.807-1.913,9.852,9.852,0,0,1,1.418-1.768,19.853,19.853,0,0,1,2.044-1.769q.791-.577,1.723-1.21t1.974-1.281v-.686a3.653,3.653,0,0,0-.646-2.238,2.3,2.3,0,0,0-1.974-.866,3.215,3.215,0,0,0-1.686.451,3.461,3.461,0,0,0-1.22,1.245Zm4.628,17.146a3.07,3.07,0,0,0,1.4-.325,4.867,4.867,0,0,0,1.256-.939v-8.482q-.646.4-1.149.739t-.968.7a8.1,8.1,0,0,0-2.3,2.563,5.763,5.763,0,0,0-.61,2.6,3.6,3.6,0,0,0,.646,2.419A2.2,2.2,0,0,0,511.813,354.621Z" fill="#fff"/>
      <path id="Trazado_68" data-name="Trazado 68" d="M521.465,335.309l.5,1.263a5.929,5.929,0,0,1,3.947-1.552,4.887,4.887,0,0,1,1.776.325,3.943,3.943,0,0,1,1.472.992,4.727,4.727,0,0,1,.986,1.679,7.01,7.01,0,0,1,.359,2.346v17h-3.194V341.048a3.546,3.546,0,0,0-.538-2.111,2.025,2.025,0,0,0-1.758-.741,3.69,3.69,0,0,0-2.547,1.156v18.012h-3.194V335.309Z" fill="#fff"/>
      <path id="Trazado_69" data-name="Trazado 69" d="M533.844,328.27a1.764,1.764,0,0,1,1.436.559,2.1,2.1,0,0,1,.466,1.39,2.249,2.249,0,0,1-.466,1.426,1.712,1.712,0,0,1-1.436.6,1.616,1.616,0,0,1-1.381-.6,2.3,2.3,0,0,1-.448-1.426,2.152,2.152,0,0,1,.448-1.39A1.663,1.663,0,0,1,533.844,328.27Zm1.651,7.039v22.055H532.3V335.309Z" fill="#fff"/>
      <path id="Trazado_70" data-name="Trazado 70" d="M547.229,335.309v2.237l-7.177,17.111h7.177v2.707h-10.55v-2.635l7.177-16.713h-7.033v-2.707Z" fill="#fff"/>
      <path id="Trazado_71" data-name="Trazado 71" d="M548.664,337.475a5.31,5.31,0,0,1,2.152-1.806,6.755,6.755,0,0,1,2.943-.649,4.625,4.625,0,0,1,3.911,1.678,6.873,6.873,0,0,1,1.292,4.314v16.352h-2.01l-.574-1.227a6.984,6.984,0,0,1-1.848,1.1,5.727,5.727,0,0,1-2.171.415,5.063,5.063,0,0,1-1.74-.307,3.911,3.911,0,0,1-1.489-.974,4.686,4.686,0,0,1-1.023-1.751,8.2,8.2,0,0,1-.377-2.671,9.27,9.27,0,0,1,.252-2.239,6.707,6.707,0,0,1,.807-1.913,9.851,9.851,0,0,1,1.418-1.768,19.856,19.856,0,0,1,2.044-1.769q.791-.577,1.723-1.21t1.974-1.281v-.686a3.653,3.653,0,0,0-.646-2.238,2.3,2.3,0,0,0-1.974-.866,3.215,3.215,0,0,0-1.686.451,3.46,3.46,0,0,0-1.22,1.245Zm4.628,17.146a3.07,3.07,0,0,0,1.4-.325,4.867,4.867,0,0,0,1.256-.939v-8.482q-.646.4-1.149.739t-.968.7a8.1,8.1,0,0,0-2.3,2.563,5.763,5.763,0,0,0-.61,2.6,3.6,3.6,0,0,0,.646,2.419A2.2,2.2,0,0,0,553.292,354.621Z" fill="#fff"/>
      <path id="Trazado_72" data-name="Trazado 72" d="M563.662,352.13a2.264,2.264,0,0,0,.646,1.751,2.339,2.339,0,0,0,1.65.6,2.392,2.392,0,0,0,1.687-.6,2.264,2.264,0,0,0,.646-1.751v-1.336l2.906-.757v2.274a5.7,5.7,0,0,1-.412,2.238,5.006,5.006,0,0,1-1.149,1.678,4.912,4.912,0,0,1-1.7,1.065,5.929,5.929,0,0,1-2.081.361,5.773,5.773,0,0,1-2.063-.361,4.76,4.76,0,0,1-1.669-1.065,5.106,5.106,0,0,1-1.13-1.678,5.683,5.683,0,0,1-.413-2.238V340.362a5.718,5.718,0,0,1,.413-2.22,5.052,5.052,0,0,1,1.13-1.7,4.774,4.774,0,0,1,1.669-1.065,5.773,5.773,0,0,1,2.063-.361,5.929,5.929,0,0,1,2.081.361,4.9,4.9,0,0,1,2.853,2.761,5.735,5.735,0,0,1,.412,2.22v.939h-2.906v-.759a2.263,2.263,0,0,0-.646-1.75,2.392,2.392,0,0,0-1.687-.6,2.339,2.339,0,0,0-1.65.6,2.263,2.263,0,0,0-.646,1.75Z" fill="#fff"/>
      <path id="Trazado_73" data-name="Trazado 73" d="M574.139,328.27a1.764,1.764,0,0,1,1.436.559,2.1,2.1,0,0,1,.466,1.39,2.249,2.249,0,0,1-.466,1.426,1.712,1.712,0,0,1-1.436.6,1.616,1.616,0,0,1-1.381-.6,2.3,2.3,0,0,1-.448-1.426,2.147,2.147,0,0,1,.448-1.39A1.663,1.663,0,0,1,574.139,328.27Zm1.651,7.039v22.055H572.6V335.309Z" fill="#fff"/>
      <path id="Trazado_74" data-name="Trazado 74" d="M588.385,352.311a5.491,5.491,0,0,1-.431,2.238,5.215,5.215,0,0,1-1.166,1.678,4.866,4.866,0,0,1-1.74,1.065,6.443,6.443,0,0,1-4.253,0,4.879,4.879,0,0,1-1.722-1.065,5.216,5.216,0,0,1-1.166-1.678,5.492,5.492,0,0,1-.43-2.238V340.362a5.526,5.526,0,0,1,.43-2.22,5.155,5.155,0,0,1,1.166-1.7,4.893,4.893,0,0,1,1.722-1.065,6.443,6.443,0,0,1,4.253,0,4.88,4.88,0,0,1,1.74,1.065,5.155,5.155,0,0,1,1.166,1.7,5.525,5.525,0,0,1,.431,2.22Zm-1.866-24.438-3.839,5.7h-2.8l3.157-5.7Zm-5.957,24.257a2.23,2.23,0,0,0,.664,1.751,2.455,2.455,0,0,0,1.705.6,2.389,2.389,0,0,0,1.686-.6,2.264,2.264,0,0,0,.646-1.751V340.542a2.263,2.263,0,0,0-.646-1.75,2.389,2.389,0,0,0-1.686-.6,2.455,2.455,0,0,0-1.705.6,2.229,2.229,0,0,0-.664,1.75Z" fill="#fff"/>
      <path id="Trazado_75" data-name="Trazado 75" d="M592.259,335.309l.5,1.263a5.924,5.924,0,0,1,3.946-1.552,4.892,4.892,0,0,1,1.777.325,3.939,3.939,0,0,1,1.471.992,4.714,4.714,0,0,1,.987,1.679,7.01,7.01,0,0,1,.359,2.346v17h-3.194V341.048a3.545,3.545,0,0,0-.538-2.111,2.026,2.026,0,0,0-1.758-.741,3.69,3.69,0,0,0-2.548,1.156v18.012H590.07V335.309Z" fill="#fff"/>
      <path id="Trazado_76" data-name="Trazado 76" d="M619.35,335.309v28.228h-3.193v-7.364a5.374,5.374,0,0,1-3.338,1.119,4.747,4.747,0,0,1-1.758-.325,3.976,3.976,0,0,1-1.453-.992,4.739,4.739,0,0,1-.987-1.661,6.974,6.974,0,0,1-.359-2.364V335.309h3.194v15.955q0,2.852,2.26,2.851A3.468,3.468,0,0,0,616.157,353V335.309Z" fill="#fff"/>
      <path id="Trazado_77" data-name="Trazado 77" d="M629.54,352.2a2.384,2.384,0,0,0,.664,1.841,2.456,2.456,0,0,0,1.74.614,2.522,2.522,0,0,0,1.758-.614,2.353,2.353,0,0,0,.682-1.841v-.577l3.05-.794v1.443a5.773,5.773,0,0,1-.449,2.329,5.563,5.563,0,0,1-1.2,1.769,4.968,4.968,0,0,1-1.776,1.119,6.316,6.316,0,0,1-2.207.379,6.063,6.063,0,0,1-2.153-.379,5.02,5.02,0,0,1-1.758-1.119,5.344,5.344,0,0,1-1.184-1.769,5.984,5.984,0,0,1-.431-2.329V334.189a5.982,5.982,0,0,1,.431-2.328,5.344,5.344,0,0,1,1.184-1.769,4.961,4.961,0,0,1,1.794-1.119,6.683,6.683,0,0,1,2.3-.379,5.33,5.33,0,0,1,3.983,1.5,5.6,5.6,0,0,1,1.472,4.1v.939h-3.05v-.866a2.468,2.468,0,0,0-.628-1.841,2.385,2.385,0,0,0-1.74-.614,2.564,2.564,0,0,0-1.812.614,2.386,2.386,0,0,0-.664,1.841Z" fill="#fff"/>
      <path id="Trazado_78" data-name="Trazado 78" d="M638.869,337.475a5.319,5.319,0,0,1,2.153-1.806,6.754,6.754,0,0,1,2.942-.649,4.625,4.625,0,0,1,3.911,1.678,6.867,6.867,0,0,1,1.292,4.314v16.352h-2.009l-.575-1.227a6.994,6.994,0,0,1-1.847,1.1,5.734,5.734,0,0,1-2.171.415,5.058,5.058,0,0,1-1.74-.307,3.907,3.907,0,0,1-1.49-.974,4.7,4.7,0,0,1-1.022-1.751,8.2,8.2,0,0,1-.377-2.671,9.321,9.321,0,0,1,.251-2.239,6.709,6.709,0,0,1,.808-1.913,9.844,9.844,0,0,1,1.417-1.768,19.88,19.88,0,0,1,2.045-1.769q.789-.577,1.723-1.21t1.973-1.281v-.686a3.646,3.646,0,0,0-.646-2.238,2.3,2.3,0,0,0-1.973-.866,3.221,3.221,0,0,0-1.687.451,3.476,3.476,0,0,0-1.22,1.245Zm4.629,17.146a3.062,3.062,0,0,0,1.4-.325,4.851,4.851,0,0,0,1.256-.939v-8.482q-.645.4-1.148.739c-.336.229-.658.464-.969.7a8.1,8.1,0,0,0-2.3,2.563,5.764,5.764,0,0,0-.611,2.6,3.61,3.61,0,0,0,.646,2.419A2.2,2.2,0,0,0,643.5,354.621Z" fill="#fff"/>
      <path id="Trazado_79" data-name="Trazado 79" d="M653.149,335.309l.538,1.371a6.076,6.076,0,0,1,1.849-1.227,5.41,5.41,0,0,1,2.134-.433,4.659,4.659,0,0,1,1.723.325,3.812,3.812,0,0,1,1.435.992,5.094,5.094,0,0,1,.987,1.679,6.705,6.705,0,0,1,.377,2.346v11.949a6.665,6.665,0,0,1-.377,2.364,5.1,5.1,0,0,1-.987,1.66,3.8,3.8,0,0,1-1.435.993,4.659,4.659,0,0,1-1.723.325,5.4,5.4,0,0,1-3.516-1.263v7.147H650.96V335.309Zm3.624,2.887a3.537,3.537,0,0,0-2.619,1.264v13.753a3.534,3.534,0,0,0,2.619,1.264,1.945,1.945,0,0,0,1.687-.741,3.542,3.542,0,0,0,.538-2.111V341.048a3.546,3.546,0,0,0-.538-2.111A1.945,1.945,0,0,0,656.773,338.2Z" fill="#fff"/>
      <path id="Trazado_80" data-name="Trazado 80" d="M665.421,328.27a1.762,1.762,0,0,1,1.435.559,2.1,2.1,0,0,1,.467,1.39,2.244,2.244,0,0,1-.467,1.426,1.709,1.709,0,0,1-1.435.6,1.615,1.615,0,0,1-1.381-.6,2.3,2.3,0,0,1-.449-1.426,2.148,2.148,0,0,1,.449-1.39A1.662,1.662,0,0,1,665.421,328.27Zm1.651,7.039v22.055h-3.194V335.309Z" fill="#fff"/>
      <path id="Trazado_81" data-name="Trazado 81" d="M670.086,335.309v-3.863l3.086-1.3v5.163h3.66v2.707h-3.66V351.95a2.8,2.8,0,0,0,.646,1.967,2.181,2.181,0,0,0,1.686.7,2.706,2.706,0,0,0,1.615-.578l.861,2.744a4.448,4.448,0,0,1-1.381.65,5.9,5.9,0,0,1-1.6.216,5.078,5.078,0,0,1-2.225-.451,4.169,4.169,0,0,1-1.525-1.227,5.246,5.246,0,0,1-.879-1.824,8.255,8.255,0,0,1-.287-2.2V338.016h-2.368v-2.707Z" fill="#fff"/>
      <path id="Trazado_82" data-name="Trazado 82" d="M678.8,337.475a5.32,5.32,0,0,1,2.153-1.806,6.754,6.754,0,0,1,2.942-.649,4.628,4.628,0,0,1,3.912,1.678,6.873,6.873,0,0,1,1.292,4.314v16.352h-2.01l-.574-1.227a7,7,0,0,1-1.848,1.1,5.734,5.734,0,0,1-2.171.415,5.059,5.059,0,0,1-1.74-.307,3.907,3.907,0,0,1-1.49-.974,4.7,4.7,0,0,1-1.022-1.751,8.2,8.2,0,0,1-.377-2.671,9.267,9.267,0,0,1,.252-2.239,6.705,6.705,0,0,1,.807-1.913,9.841,9.841,0,0,1,1.417-1.768,19.867,19.867,0,0,1,2.045-1.769q.789-.577,1.723-1.21t1.973-1.281v-.686a3.646,3.646,0,0,0-.646-2.238,2.3,2.3,0,0,0-1.973-.866,3.221,3.221,0,0,0-1.687.451,3.477,3.477,0,0,0-1.22,1.245Zm4.629,17.146a3.063,3.063,0,0,0,1.4-.325,4.851,4.851,0,0,0,1.256-.939v-8.482q-.645.4-1.148.739c-.336.229-.658.464-.969.7a8.1,8.1,0,0,0-2.3,2.563,5.763,5.763,0,0,0-.611,2.6,3.61,3.61,0,0,0,.646,2.419A2.2,2.2,0,0,0,683.434,354.621Z" fill="#fff"/>
      <path id="Trazado_83" data-name="Trazado 83" d="M694.091,327.945v29.419H690.9V328.739Z" fill="#fff"/>
      <path id="Trazado_84" data-name="Trazado 84" d="M704.5,329.1v12.309h4.987V329.1h3.3v28.264h-3.3V344.585H704.5v12.779h-3.3V329.1Z" fill="#fff"/>
      <path id="Trazado_85" data-name="Trazado 85" d="M725.666,335.309v22.055h-2.189l-.538-1.227a5.378,5.378,0,0,1-3.8,1.516,4.746,4.746,0,0,1-1.758-.325,3.954,3.954,0,0,1-1.453-.993,4.715,4.715,0,0,1-.987-1.66,6.97,6.97,0,0,1-.358-2.364v-17h3.193v16.316q0,2.852,2.261,2.852a3.462,3.462,0,0,0,2.439-1.12V335.309Z" fill="#fff"/>
      <path id="Trazado_86" data-name="Trazado 86" d="M729.721,335.309l.5,1.227a5.5,5.5,0,0,1,3.768-1.516,4.349,4.349,0,0,1,2.045.487,4.085,4.085,0,0,1,1.543,1.426,5.541,5.541,0,0,1,1.92-1.426,5.453,5.453,0,0,1,2.243-.487,4.648,4.648,0,0,1,1.721.325,3.815,3.815,0,0,1,1.436.992,4.9,4.9,0,0,1,.969,1.679,7.01,7.01,0,0,1,.359,2.346v17h-3.194V341.048a3.74,3.74,0,0,0-.5-2.111,1.889,1.889,0,0,0-1.687-.741,3.422,3.422,0,0,0-2.44,1.156c.024.168.042.331.054.487s.018.331.018.523v17h-3.193V341.048a3.74,3.74,0,0,0-.5-2.111,1.888,1.888,0,0,0-1.687-.741,3.285,3.285,0,0,0-2.368,1.083v18.085h-3.193V335.309Z" fill="#fff"/>
      <path id="Trazado_87" data-name="Trazado 87" d="M748.271,337.475a5.32,5.32,0,0,1,2.153-1.806,6.755,6.755,0,0,1,2.943-.649,4.625,4.625,0,0,1,3.911,1.678,6.873,6.873,0,0,1,1.292,4.314v16.352h-2.01l-.574-1.227a7,7,0,0,1-1.848,1.1,5.727,5.727,0,0,1-2.171.415,5.063,5.063,0,0,1-1.74-.307,3.9,3.9,0,0,1-1.489-.974,4.686,4.686,0,0,1-1.023-1.751,8.2,8.2,0,0,1-.377-2.671,9.321,9.321,0,0,1,.251-2.239,6.709,6.709,0,0,1,.808-1.913,9.845,9.845,0,0,1,1.417-1.768,19.781,19.781,0,0,1,2.046-1.769q.788-.577,1.722-1.21t1.973-1.281v-.686a3.652,3.652,0,0,0-.645-2.238,2.3,2.3,0,0,0-1.974-.866,3.215,3.215,0,0,0-1.686.451,3.468,3.468,0,0,0-1.22,1.245Zm4.629,17.146a3.059,3.059,0,0,0,1.4-.325,4.835,4.835,0,0,0,1.256-.939v-8.482q-.645.4-1.147.739c-.336.229-.658.464-.97.7a8.1,8.1,0,0,0-2.3,2.563,5.762,5.762,0,0,0-.61,2.6,3.61,3.61,0,0,0,.646,2.419A2.2,2.2,0,0,0,752.9,354.621Z" fill="#fff"/>
      <path id="Trazado_88" data-name="Trazado 88" d="M762.552,335.309l.5,1.263A5.929,5.929,0,0,1,767,335.02a4.9,4.9,0,0,1,1.777.325,3.948,3.948,0,0,1,1.471.992,4.727,4.727,0,0,1,.986,1.679,7.01,7.01,0,0,1,.359,2.346v17H768.4V341.048a3.552,3.552,0,0,0-.538-2.111,2.029,2.029,0,0,0-1.759-.741,3.694,3.694,0,0,0-2.548,1.156v18.012h-3.193V335.309Z" fill="#fff"/>
      <path id="Trazado_89" data-name="Trazado 89" d="M784.117,352.311a5.492,5.492,0,0,1-.43,2.238,5.218,5.218,0,0,1-1.167,1.678,4.849,4.849,0,0,1-1.74,1.065,6.44,6.44,0,0,1-4.252,0,4.869,4.869,0,0,1-1.722-1.065,5.2,5.2,0,0,1-1.167-1.678,5.492,5.492,0,0,1-.431-2.238V340.362a5.526,5.526,0,0,1,.431-2.22,5.143,5.143,0,0,1,1.167-1.7,4.884,4.884,0,0,1,1.722-1.065,6.44,6.44,0,0,1,4.252,0,4.863,4.863,0,0,1,1.74,1.065,5.157,5.157,0,0,1,1.167,1.7,5.526,5.526,0,0,1,.43,2.22Zm-7.823-.181a2.234,2.234,0,0,0,.664,1.751,2.458,2.458,0,0,0,1.705.6,2.387,2.387,0,0,0,1.686-.6A2.264,2.264,0,0,0,781,352.13V340.542a2.263,2.263,0,0,0-.647-1.75,2.387,2.387,0,0,0-1.686-.6,2.458,2.458,0,0,0-1.705.6,2.233,2.233,0,0,0-.664,1.75Z" fill="#fff"/>
    </g>
  </g>
</svg>
